<?xml version="1.0" encoding="utf-8"?>
<!-- Generator: Adobe Illustrator 24.1.1, SVG Export Plug-In . SVG Version: 6.00 Build 0)  -->
<svg version="1.1" id="Laag_1" xmlns="http://www.w3.org/2000/svg" xmlns:xlink="http://www.w3.org/1999/xlink" x="0px" y="0px"
	 viewBox="0 0 1340 852" style="enable-background:new 0 0 1340 852;" xml:space="preserve">
<style type="text/css">
	.st0{fill:#FF6928;}
	.st1{fill:none;stroke:#19BFBF;stroke-width:8;stroke-miterlimit:10;}
</style>
<path class="st0" d="M400.78,47.09c-87.41,112.44-526.09,470-218.85,567.23c112.52,35.61,239.59,10.29,353.45,51.54
	c127.16,46.07,228.78,118.31,371.87,109.3c120.02-7.56,164.49-96.73,177.21-194.25c13.22-101.34,52.08-123.61,122.98-197.93
	c58.45-61.28,99.03-143.57,27.48-207.82c-76.46-68.67-203.9-36.15-301.67-41.11c-67.02-3.4-137.7-12.4-194.41-42.32
	c-31.58-16.66-64.67-39.7-100.63-50.47C564.13,19.07,467.68,22.18,400.78,47.09z"/>
<path class="st1" d="M414.1,93.46c-18.9,11.78-34.71,27.21-50.16,42.63c-97.82,97.66-456.06,429.76-173.1,519.3
	c112.52,35.61,239.59,10.3,353.45,51.54C671.45,753,773.07,825.25,916.16,816.23c120.02-7.56,164.49-96.73,177.21-194.25
	c13.22-101.34,52.08-123.61,122.98-197.93c58.45-61.28,99.03-143.57,27.48-207.82c-76.46-68.67-203.9-36.15-301.67-41.11
	c-67.02-3.4-137.7-12.4-194.42-42.33c-61.47-32.43-127.37-58.46-198.81-65.35c-45.94-4.43-94.55,1.63-133.03,24.9
	C415.3,92.71,414.7,93.08,414.1,93.46z"/>
</svg>
