<?xml version="1.0" encoding="utf-8"?>
<!-- Generator: Adobe Illustrator 24.1.1, SVG Export Plug-In . SVG Version: 6.00 Build 0)  -->
<svg version="1.1" id="Laag_1" xmlns="http://www.w3.org/2000/svg" xmlns:xlink="http://www.w3.org/1999/xlink" x="0px" y="0px"
	 viewBox="0 0 451.91 473.36" style="enable-background:new 0 0 451.91 473.36;" xml:space="preserve">
<style type="text/css">
	.st0{fill:#ECF6F9;}
	.st1{fill:#F7AD79;}
	.st2{fill:#ED6932;}
	.st3{fill:#31B7BA;}
	.st4{fill:#131A2E;}
	.st5{fill:#153349;}
	.st6{fill:#F7AD7A;}
	.st7{fill:#3EB17E;}
	.st8{fill:#029A77;}
	.st9{fill:#FFFFFF;}
	.st10{fill:#345565;}
	.st11{fill:#A4D8E3;}
	.st12{fill:#EF7D51;}
	.st13{fill:#EA543D;}
	.st14{fill:#081D1D;}
	.st15{fill:#FCC04B;}
	.st16{fill:#F59A29;}
</style>
<g>
	<g>
		<path class="st0" d="M37.77,230.77c-10.72-14.06-15.03-32.08-11.33-49.36c3.11-14.48,11.34-27.05,31.82-19.36
			c49.03,18.38,70.7,2.17,77.85-23.49c7.15-25.66,16.76-85.96,60.91-77.75c44.15,8.21,46.82,90.46,86.95,80.9
			c40.13-9.56,78.9-15.71,104.78,12.05c25.88,27.76,44.02,86.47,19.65,117.5c-24.38,31.03-77.21,4.25-97.87,44.12
			c-20.67,39.87-107.36,41.72-113.5-0.79c-6.15-42.51-51.72-72.51-91.53-51.51C79.24,276.93,52.76,250.43,37.77,230.77z"/>
		<path class="st0" d="M93.63,284.7c-4.7,0.14-9.18,2.16-12.27,5.7c-3.13,3.59-5.18,8.96-0.84,16.06
			c8.67,14.2,37.63,5.15,35.16-14.28C114.78,285.08,101.31,284.47,93.63,284.7z"/>
		<path class="st0" d="M354.38,120.69c4.68,0.42,9.37-1.05,12.86-4.21c3.54-3.2,6.21-8.28,2.74-15.85
			c-6.93-15.12-35.93,0.17-36.61,10.01C332.88,117.79,346.72,120.01,354.38,120.69z"/>
	</g>
	<path class="st0" d="M25.52,443.02c0,5.5,88.48,9.96,197.62,9.96c109.14,0,197.62-4.46,197.62-9.96s-88.48-9.96-197.62-9.96
		C114,433.06,25.52,437.52,25.52,443.02z"/>
	<g>
		<g>
			<g>
				<g>
					<polygon class="st1" points="219.88,438.62 249.45,327 256.8,328.94 227.74,438.62 					"/>
				</g>
				<g>
					<polygon class="st1" points="350.5,438.62 321.45,328.94 328.79,327 358.36,438.62 					"/>
				</g>
				<g>
					
						<rect x="291.26" y="320.62" transform="matrix(0.3083 -0.9513 0.9513 0.3083 -148.5401 535.362)" class="st1" width="5.2" height="98.41"/>
				</g>
				<g>
					
						<rect x="237.34" y="367.22" transform="matrix(0.9513 -0.3083 0.3083 0.9513 -100.0456 106.3375)" class="st1" width="98.41" height="5.2"/>
				</g>
			</g>
			<g>
				<path class="st1" d="M294.13,139.19c57.29-18.08,110.18,23.87,108.33,85.13c-1.2,39.6-12.46,86.14-53.66,110.33
					c-80.35,47.17-147.88,8.65-144.51-55.45c3.37-64.09,46.6-121.72,81.01-136.71C288.16,141.24,291.12,140.14,294.13,139.19z"/>
				<path class="st2" d="M280.49,166.44c34.52-18.27,70.98-5.21,80.72,28.01c3.42,11.65,5.17,26.31,2.73,44.03
					c-7.28,52.93-35.61,73.36-77.39,77.88c-41.78,4.53-64.89-11.81-66.83-38.27c-1.94-26.46,22.12-86.95,54.66-108.06
					C276.41,168.71,278.45,167.51,280.49,166.44z"/>
			</g>
		</g>
		<g>
			<path class="st3" d="M220.57,214.4c-1.96-5.94-3.87-11.91-5.96-17.8c10.61-0.48,21.87-2.28,26.56-7.34
				c9.95-10.74,25.52-48.17,25.52-48.17s-0.06,55.73-17.48,67.22C241.62,213.32,230.59,214.57,220.57,214.4z"/>
			<g>
				<g>
					<path class="st4" d="M138.4,245.11c2.98-2.66,6.84-4.16,11.72-4.23c0.9-0.01,1.8-0.01,2.7,0
						c14.68,0.17,81.44,11.23,94.13,15.51c3.12,4.85,4.92,9.53,5.9,14.18c3.87,18.18-11.78,34.6-30.18,31.93
						c-22.44-3.26-49.08-6.6-51.67-8.2c-1.81-1.12-2.86-1.83-2.94-1.89c0.02,0.07,0.33,0.93,0.83,2.45
						c2.46,7.61,9.44,31.84,7.92,57.67c-1.24,21.13,4.86,40.53,4.86,40.53l-20.84,8.66C160.83,401.72,109.93,270.51,138.4,245.11z"
						/>
					<g>
						<path class="st5" d="M154.09,278.34c5.64,3.39,11.62,11.68,14.81,16.51c-0.49-1.53-0.81-2.38-0.83-2.45
							c0.08,0.05,1.13,0.77,2.94,1.89c-0.8-1.23-1.81-2.74-2.97-4.35c-0.61-0.85-1.27-1.74-1.96-2.63
							c-3.17-4.11-7.07-8.41-10.92-10.72c-0.49-0.29-1.13-0.14-1.42,0.35C153.45,277.41,153.61,278.05,154.09,278.34z"/>
					</g>
					<g>
						<path class="st5" d="M166.95,291.24c0.48,0,0.92-0.34,1.01-0.84c0.69-3.55-0.74-11.15-0.8-11.48
							c-0.11-0.56-0.65-0.93-1.21-0.82c-0.56,0.11-0.93,0.65-0.82,1.21c0.01,0.07,1.42,7.54,0.8,10.69
							c-0.11,0.56,0.26,1.1,0.82,1.21C166.82,291.23,166.88,291.24,166.95,291.24z"/>
					</g>
					<g>
						<g>
							<g>
								<path class="st6" d="M161.93,394.83l2.59,20.71c6.33,3.2,13.36,2.86,20.83,0.38l-5.37-25.15L161.93,394.83z"/>
							</g>
						</g>
						<g>
							<path class="st5" d="M181.88,386.41c3.05,4.83,3.35,8.64,3.46,13.04c0,0-10.67,4.18-25.84,8.05l-4.08-11.09
								C155.43,396.4,165.06,392.45,181.88,386.41z"/>
						</g>
						<g>
							<path class="st7" d="M118.19,439.45c0.08,0.39,0.16,0.82,0.26,1.27c0.07,0.29,0.13,0.57,0.2,0.85
								c0.29,1.17,0.66,2.25,1.04,2.62c0.97,0.93,22.68,0.66,22.68,0.66l24.02-0.02c3.49,0.08,15.8-0.1,21.38-0.18
								c1.57-0.02,2.85-1.27,2.91-2.83c0.02-0.34,0.03-0.7,0.05-1.09c0.17-3.95,0.39-9.76,0.35-11.67
								c-0.08-2.98-2.61-8.73-2.61-8.73s4.7-4.77,1.49-6.49c-3.21-1.72-4.64-0.45-4.64-0.45s-7.66,4.08-11.54,3.61
								c-3.88-0.48-7.8-4.45-9.07-7.43c-1.27-2.98-6.34-0.81-6.71,1.95c-0.16,1.12-0.72,1.8-1.62,2.48
								c-0.95,0.73-2.27,1.46-3.89,2.74c-0.26,0.2-0.53,0.42-0.8,0.66c-0.38,0.33-0.78,0.69-1.19,1.09
								c-0.72,0.69-1.55,1.37-2.47,2.03c-0.18,0.14-0.38,0.27-0.58,0.41c-1,0.69-2.07,1.36-3.18,2.01c-3.87,2.24-8.1,4.17-10.64,5.6
								c-3.24,1.83-11.2,6.6-14.38,8.51C118.43,437.53,118.01,438.49,118.19,439.45z"/>
							<path class="st8" d="M118.66,441.57c0.29,1.17,0.66,2.25,1.04,2.62c0.97,0.93,22.68,0.66,22.68,0.66l24.02-0.02
								c3.49,0.08,15.8-0.1,21.38-0.18c1.57-0.02,2.85-1.27,2.91-2.83c0.02-0.34,0.03-0.7,0.05-1.09
								C168.05,442.1,143.78,442.21,118.66,441.57z"/>
							<g>
								<g>
									<g>
										<path class="st9" d="M160.15,427.05c0.32,0.1,0.67,0.07,0.98-0.11c0.6-0.34,0.82-1.11,0.48-1.71
											c-0.11-0.2-2.84-4.97-6.53-6.84c-4.9-2.49-8.74,0.27-8.9,0.39c-0.56,0.41-0.68,1.2-0.26,1.76
											c0.41,0.56,1.2,0.68,1.76,0.26c0.1-0.07,2.78-1.94,6.27-0.17c3,1.52,5.45,5.8,5.48,5.84
											C159.58,426.76,159.85,426.96,160.15,427.05z"/>
									</g>
								</g>
								<g>
									<g>
										<path class="st9" d="M163.91,423.52c0.32,0.1,0.67,0.07,0.98-0.11c0.6-0.34,0.82-1.11,0.48-1.71
											c-0.11-0.2-2.84-4.97-6.53-6.84c-4.91-2.5-8.74,0.27-8.9,0.39c-0.56,0.41-0.68,1.2-0.26,1.76
											c0.41,0.56,1.2,0.68,1.76,0.26c0.11-0.07,2.78-1.94,6.27-0.17c3.02,1.53,5.45,5.8,5.48,5.84
											C163.34,423.23,163.61,423.43,163.91,423.52z"/>
									</g>
								</g>
								<g>
									<g>
										<path class="st9" d="M155.06,429.91c0.32,0.1,0.67,0.07,0.98-0.11c0.6-0.34,0.82-1.11,0.48-1.71
											c-0.11-0.2-2.84-4.97-6.53-6.84c-4.91-2.5-8.74,0.27-8.9,0.39c-0.56,0.41-0.68,1.2-0.26,1.76
											c0.41,0.56,1.2,0.68,1.76,0.26c0.1-0.07,2.78-1.94,6.27-0.17c3.02,1.53,5.45,5.8,5.48,5.84
											C154.49,429.62,154.76,429.82,155.06,429.91z"/>
									</g>
								</g>
							</g>
						</g>
					</g>
				</g>
			</g>
			<g>
				<path class="st5" d="M103.05,388.4l74.54-85.81l80.98-45.23c0,0,36.89,2.97,49.21,15.6c0,0,10.93,29.26-24.59,37.49
					c-31.55,7.3-73.44,16.97-82.43,19.05c-1.13,0.26-1.74,0.4-1.74,0.4s-0.08,0.14-0.24,0.39c-1.95,3.22-15.75,25.45-33.24,41.74
					c-7.68,7.15-37.8,23.95-47.84,30.52C112.61,398.05,107.78,393.28,103.05,388.4z"/>
				<g>
					<path class="st10" d="M185.9,316.62c4.64,2.79,9.52,8.9,12.87,13.67c0.16-0.26,0.24-0.39,0.24-0.39s0.61-0.14,1.74-0.4
						c-0.29-0.42-0.59-0.85-0.91-1.29c-0.61-0.85-1.27-1.74-1.96-2.63c-3.16-4.11-7.07-8.42-10.92-10.72
						c-0.49-0.29-1.13-0.14-1.42,0.35S185.41,316.33,185.9,316.62z"/>
				</g>
				<g>
					<path class="st10" d="M198.76,329.51c0.48,0,0.92-0.34,1.01-0.84c0.69-3.55-0.74-11.15-0.8-11.48
						c-0.11-0.56-0.65-0.93-1.21-0.82c-0.56,0.11-0.93,0.65-0.82,1.21c0.01,0.07,1.42,7.54,0.8,10.69c-0.11,0.56,0.26,1.1,0.82,1.21
						C198.63,329.51,198.69,329.51,198.76,329.51z"/>
				</g>
			</g>
			<g>
				<path class="st11" d="M229.74,252.34c19.44,10.25,19.59,13.79,34.75,22.79c10.12,6.01,29.94,5.93,39.75,5.71
					c4.52-0.1,7.13-2.63,7.44-7.14c0.67-9.73,3.09-24.16,7.35-40.04c0.42-1.56,0.85-3.13,1.31-4.72c1.2-4.19,3.33-9.91,5.94-16.42
					c0.12-0.3,0.24-0.6,0.36-0.91c9-22.27,23.32-53.27,25.82-64.97c-0.76-3.56-1.46-5.39-1.52-5.55c-0.01-0.01-0.01-0.01-0.01-0.01
					c-9.53-6.58-34.64-17.67-34.64-17.67l-20.51,2.67c0,0-28.49,9.6-30.44,17.19c-1.96,7.58-6.17,32.03-9.87,45.98
					C241.57,241.9,215.9,245.04,229.74,252.34z"/>
				<g>
					<path class="st3" d="M293.03,144.78c-1.27,0-2.56-0.08-3.87-0.26c-0.49-0.07-0.83-0.52-0.77-1c0.07-0.49,0.52-0.82,1-0.77
						c16.63,2.26,30.35-12.14,30.49-12.29c0.34-0.36,0.91-0.37,1.26-0.04c0.36,0.34,0.38,0.9,0.04,1.26
						C320.65,132.26,308.7,144.78,293.03,144.78z"/>
				</g>
				<g>
					<path class="st3" d="M295.1,152c-0.49,0-0.89-0.4-0.89-0.89c0-0.49,0.4-0.89,0.89-0.89c10.53,0,17.76-6.73,17.83-6.8
						c0.36-0.34,0.92-0.32,1.26,0.04c0.34,0.36,0.32,0.92-0.03,1.26C313.85,145.01,306.34,152,295.1,152z"/>
				</g>
				<g>
					<path class="st3" d="M277.57,266.35c-0.33,0-0.66-0.19-0.81-0.51c-11.2-23.86-30.19-26.33-30.38-26.35
						c-0.49-0.06-0.84-0.5-0.78-0.99c0.06-0.49,0.49-0.85,0.99-0.78c0.2,0.02,20.17,2.61,31.79,27.36c0.21,0.45,0.02,0.98-0.43,1.19
						C277.83,266.32,277.7,266.35,277.57,266.35z"/>
				</g>
				<g>
					<path class="st3" d="M279.76,194.12c-2.34,0-4.74-0.25-7.17-0.81c-0.48-0.11-0.78-0.59-0.67-1.07
						c0.11-0.48,0.57-0.79,1.07-0.67c18.99,4.42,37.04-12.15,37.22-12.32c0.36-0.34,0.93-0.32,1.26,0.04
						c0.33,0.36,0.32,0.93-0.04,1.26C310.77,181.19,296.69,194.12,279.76,194.12z"/>
				</g>
			</g>
			<g>
				<g>
					<g>
						<path class="st6" d="M294.11,115.9l1.69,10.19l0.57,3.44c11.59,2.19,19.94-6.11,19.94-6.11l0.09-15.9
							c-0.21-0.13-0.44-0.24-0.68-0.32C309.39,104.87,294.11,115.9,294.11,115.9z"/>
						<path class="st12" d="M294.11,115.9l1.69,10.19c11.45-4.81,17.35-13.78,19.91-18.89C309.39,104.87,294.11,115.9,294.11,115.9z
							"/>
					</g>
					<g>
						<path class="st12" d="M273.87,83.42c0,0-5.44-5.76-8.36-0.15c-2.92,5.61,3.81,20.42,11.98,15.68L273.87,83.42z"/>
						<g>
							<path class="st13" d="M275.07,94.42c-0.32,0.04-0.63-0.14-0.76-0.45c-1.88-4.6-7.01-5.96-7.07-5.97
								c-0.39-0.1-0.63-0.5-0.53-0.89c0.1-0.39,0.5-0.63,0.89-0.53c0.24,0.06,5.9,1.54,8.06,6.84c0.15,0.37-0.03,0.8-0.4,0.95
								C275.2,94.39,275.13,94.41,275.07,94.42z"/>
						</g>
						<g>
							<g>
								<path class="st13" d="M269.83,92.59c-0.14,0.02-0.28-0.01-0.41-0.07c-0.36-0.18-0.51-0.62-0.33-0.98
									c0.03-0.06,0.75-1.49,2.48-2.51c0.35-0.21,0.8-0.09,1,0.26c0.21,0.35,0.09,0.8-0.26,1c-1.34,0.79-1.9,1.89-1.91,1.9
									C270.29,92.42,270.07,92.56,269.83,92.59z"/>
							</g>
						</g>
					</g>
					<path class="st6" d="M270.88,91.49c0.2,1.52,0.44,2.93,0.72,4.21c2.59,11.51,14.15,34.51,33.9,21.32
						c4.74-3.17,8.22-6.23,10.89-9.5c2.01-2.46,3.57-5.05,4.86-7.89c0.5-1.1,0.69-2.31,0.98-3.47c0.05-0.2,0.1-0.41,0.15-0.62
						c0.03-0.12,0.06-0.23,0.09-0.35c0.83-3.39,1.4-6.8,1.82-10.05c0.52-4.05,0.78-7.81,0.89-10.9c0.22-5.68-2.59-11.04-7.37-14.11
						c-12.94-8.34-27.2-6.32-36.69-3.28c-6.59,2.11-11.08,8.2-11.13,15.11c-0.03,3.28,0,7.01,0.16,10.71
						C270.29,85.73,270.52,88.77,270.88,91.49z"/>
					<path class="st12" d="M314.05,95.68c0,0,2.36,3.99,7.2,3.95c0.36-1.15,0.69-2.31,0.98-3.47
						C319.93,96.71,316.37,97.18,314.05,95.68z"/>
					<path class="st14" d="M316.39,107.52c2.01-2.46,3.57-5.05,4.86-7.89c0.5-1.1,0.69-2.31,0.98-3.47c0.05-0.2,0.1-0.41,0.15-0.62
						c-0.49,0.05-1.29,0.26-2.59,0.76C319.8,96.3,314.68,102.88,316.39,107.52z"/>
					<path class="st9" d="M284.02,104.81c1.18,2.89,4.22,8.03,10.91,6.75c6.7-1.29,7.61-6.7,7.59-10.31L284.02,104.81z"/>
					<path class="st14" d="M298.88,86.09c0.19,1.63,1.09,2.87,2.01,2.76c0.92-0.11,1.52-1.51,1.33-3.15
						c-0.19-1.63-1.09-2.87-2.01-2.76C299.29,83.05,298.69,84.46,298.88,86.09z"/>
					<path class="st14" d="M278.37,87.97c0.19,1.63,1.18,2.86,2.22,2.74c1.04-0.12,1.73-1.54,1.54-3.17
						c-0.19-1.63-1.18-2.86-2.22-2.74C278.87,84.92,278.18,86.34,278.37,87.97z"/>
					<path class="st14" d="M309.15,77.19c0,0-7-3.42-12.75-1.45l0.31,3.14c0,0,8.22-0.05,12.2,1.93
						C309.38,79.65,309.53,78.45,309.15,77.19z"/>
					<path class="st14" d="M271.17,80.94c0,0,6.11-4.83,12.15-4.14l0.36,3.13c0,0-8.04,1.7-11.51,4.49
						C271.47,83.39,271.07,82.25,271.17,80.94z"/>
					<g>
						<path class="st12" d="M290.11,99.7c1.23-0.12,2.4-0.72,2.58-0.82c0.36-0.19,0.49-0.63,0.3-0.99c-0.19-0.36-0.63-0.49-0.99-0.3
							c-0.63,0.33-2.17,0.91-2.89,0.57c-0.14-0.07-0.34-0.2-0.43-0.64c-0.52-2.51-0.67-11.1-0.68-11.19
							c-0.01-0.4-0.34-0.73-0.74-0.72c-0.41,0.01-0.73,0.34-0.72,0.74c0.01,0.36,0.16,8.81,0.71,11.46c0.21,1,0.79,1.46,1.24,1.67
							C288.98,99.71,289.55,99.75,290.11,99.7z"/>
					</g>
					<g>
						<path class="st6" d="M319.96,80.57c0,0,5.2-5.98,8.35-0.5c3.15,5.48-1.69,20.01-11.74,16.5L319.96,80.57z"/>
						<g>
							<path class="st12" d="M319.22,91.61c0.32,0.02,0.63-0.17,0.74-0.48c1.68-4.67,6.76-6.25,6.81-6.26
								c0.39-0.12,0.61-0.52,0.49-0.91c-0.12-0.39-0.52-0.61-0.91-0.49c-0.24,0.07-5.83,1.79-7.77,7.17
								c-0.14,0.38,0.06,0.8,0.44,0.94C319.09,91.59,319.16,91.6,319.22,91.61z"/>
						</g>
						<g>
							<path class="st12" d="M324.38,89.57c0.14,0.01,0.27-0.02,0.4-0.09c0.35-0.19,0.48-0.64,0.29-0.99
								c-0.03-0.06-0.81-1.45-2.58-2.4c-0.35-0.19-0.8-0.06-0.99,0.3c-0.19,0.36-0.06,0.8,0.3,0.99c1.37,0.73,1.98,1.81,1.99,1.82
								C323.92,89.41,324.14,89.55,324.38,89.57z"/>
						</g>
					</g>
					<path class="st14" d="M325.01,77.62c0,0-4.55-1.64-6.18,2.73c-1.63,4.37-2.4,6.84-2.4,6.84l-3.32,0.27c0,0,2.26-6.29,1.28-9.93
						c-0.98-3.64-3.86-4.36-3.37-8.33c0.5-3.96-1.71-8.81-5.82-9.25c-4.1-0.43-21.8-0.6-27.84,2.58c-6.04,3.18-4.48,9.62-5.92,12.09
						c-1.44,2.47-1.29,8.05-1.29,8.05l0,0c-1.05-1.3-1.68-2.89-1.81-4.56c-0.16-2.02-0.27-5.11-0.04-9.14
						c0.43-7.56,10.75-17.15,27.31-18.14c16.56-0.99,26.9,6.23,29.51,14.2C327.72,73,325.01,77.62,325.01,77.62z"/>
					<path class="st14" d="M322.56,60.32c0,0-5.16-15.81-22.2-14.27c-17.04,1.55-23.09-7.57-32.17-1.13
						c-9.07,6.44-3.45,18.22,1.99,17.39C275.63,61.5,309.99,48.9,322.56,60.32z"/>
				</g>
			</g>
			<g>
				<g>
					<g>
						<path class="st6" d="M101.61,390.05l-14.14,15.61c2.73,6.54,8.3,10.86,15.58,13.84L117.62,401L101.61,390.05z"/>
					</g>
				</g>
				<g>
					<path class="st10" d="M123,403.41c-2.82,4.97-6.68,7.51-10.5,9.69c0,0-10.42-8.42-21-19.97l8.46-9.1
						C99.97,384.04,109.73,391.44,123,403.41z"/>
				</g>
				<g>
					<path class="st7" d="M36.73,393.71c-0.2,0.35-0.41,0.73-0.62,1.13c-0.14,0.26-0.27,0.52-0.4,0.78
						c-0.54,1.08-0.96,2.14-0.91,2.67c0.13,1.34,16.8,15.25,16.8,15.25l18.27,15.6c2.59,2.33,12.07,10.2,16.36,13.77
						c1.21,1,2.99,0.89,4.06-0.26c0.23-0.25,0.48-0.52,0.75-0.8c2.7-2.89,6.65-7.16,7.85-8.64c1.88-2.32,3.69-8.33,3.69-8.33
						s6.68-0.57,5.35-3.96c-1.32-3.39-3.23-3.36-3.23-3.36s-8.48-1.88-11.12-4.76c-2.64-2.89-3.03-8.45-2.06-11.55
						c0.98-3.09-4.29-4.74-6.37-2.89c-0.84,0.75-1.72,0.9-2.84,0.83c-1.19-0.06-2.68-0.37-4.74-0.45c-0.33-0.01-0.67-0.02-1.03-0.02
						c-0.5,0-1.04,0.02-1.61,0.05c-0.99,0.06-2.07,0.04-3.2-0.06c-0.23-0.02-0.47-0.04-0.7-0.07c-1.21-0.12-2.46-0.31-3.72-0.54
						c-4.39-0.81-8.87-2.1-11.73-2.66c-3.65-0.72-12.8-2.27-16.46-2.89C38.15,392.41,37.21,392.86,36.73,393.71z"/>
					<path class="st8" d="M35.7,395.62c-0.54,1.08-0.96,2.14-0.91,2.67c0.13,1.34,16.8,15.25,16.8,15.25l18.27,15.6
						c2.59,2.33,12.07,10.2,16.36,13.77c1.21,1,2.99,0.89,4.06-0.26c0.23-0.25,0.48-0.52,0.75-0.8
						C72.88,428.14,54.37,412.44,35.7,395.62z"/>
					<g>
						<g>
							<g>
								<path class="st9" d="M76.66,411.57c0.18,0.28,0.47,0.49,0.82,0.56c0.68,0.13,1.34-0.31,1.48-0.99
									c0.04-0.23,1.07-5.63-0.51-9.45c-2.1-5.08-6.82-5.48-7.02-5.49c-0.69-0.05-1.29,0.47-1.34,1.16
									c-0.05,0.69,0.47,1.3,1.17,1.34c0.13,0.01,3.37,0.33,4.87,3.95c1.29,3.11,0.37,7.95,0.36,8
									C76.42,410.98,76.5,411.3,76.66,411.57z"/>
							</g>
						</g>
						<g>
							<g>
								<path class="st9" d="M81.82,411.33c0.18,0.28,0.47,0.49,0.82,0.56c0.68,0.13,1.34-0.31,1.48-0.99
									c0.04-0.23,1.07-5.63-0.51-9.45c-2.11-5.09-6.82-5.48-7.02-5.49c-0.69-0.05-1.29,0.47-1.34,1.16
									c-0.05,0.69,0.47,1.3,1.17,1.34c0.13,0.01,3.37,0.33,4.87,3.95c1.3,3.12,0.37,7.95,0.36,8
									C81.58,410.74,81.65,411.07,81.82,411.33z"/>
							</g>
						</g>
						<g>
							<g>
								<path class="st9" d="M70.93,410.43c0.18,0.28,0.47,0.49,0.82,0.56c0.68,0.13,1.34-0.31,1.48-0.99
									c0.04-0.23,1.07-5.63-0.51-9.45c-2.1-5.09-6.82-5.48-7.02-5.49c-0.69-0.05-1.29,0.47-1.34,1.16
									c-0.05,0.69,0.47,1.3,1.16,1.34c0.13,0.01,3.37,0.33,4.87,3.95c1.3,3.12,0.37,7.95,0.36,8
									C70.7,409.84,70.77,410.17,70.93,410.43z"/>
							</g>
						</g>
					</g>
				</g>
			</g>
			<g>
				<g>
					<polygon class="st9" points="259.23,228.64 261.27,227.25 247.94,176.49 211.58,177.71 195.59,170.94 194.23,172.35 
						211.38,181.32 245.91,179.87 					"/>
					<polygon class="st15" points="246.5,178.94 259.39,229.23 229.58,231.24 210.28,179.69 					"/>
					<polygon class="st16" points="229.58,231.24 211.99,221.08 193.72,172.11 210.28,179.69 					"/>
				</g>
			</g>
			<path class="st6" d="M203.49,197.91c1.03-0.11,6.69-2.8,5.25-4.27c-1.17-1.19-6.79-0.39-6.79-0.39s-0.67-1.37-0.67-1.52
				l-0.21-0.42l-1.73-4.32c-1.03,0.36-1.9,0.88-2.36,1.21c-2.09,1.52,0.05,6.75,0.05,6.75s-2.59,2.06-1.74,4.18
				c0.84,2.12,3.32,1.64,3.32,1.64s-2.14,1.99-0.76,3.57c1.38,1.58,3.83,0.15,3.83,0.15s-1.96,3.36-0.55,4.33
				c1.41,0.96,3.18,0.4,3.18,0.4s-1.46,2.42,0.99,3.18c2.46,0.76,5.32-1.21,6.96-2.49c1.64-1.28,0.57-2.59-4.72-1.5
				c0,0,5.12-2.69,5.3-3.69c0.43-2.39-4.62-2.59-7.68-1.98c2.36-0.63,8.21-2.27,7.27-4.51C211.65,196.32,204.53,197.8,203.49,197.91
				z"/>
			<g>
				<path class="st3" d="M265.21,219.47c0,0,4.57,4.55,32,10.25c8.31,1.72,15.55,3.3,21.83,3.94c16.32,1.69,26.13-2.88,31.15-27.28
					c6.41-31.21,4.17-50.85,2.29-59.74c-0.76-3.56-1.46-5.39-1.52-5.55c-0.01-0.01-0.01-0.01-0.01-0.01h-0.01
					c-19.8,2.67-21.69,32.05-21.69,32.05c1.16,13.4-1.88,33.9-2.6,38.48c-0.1,0.6-0.15,0.93-0.15,0.93s-0.07-0.01-0.21-0.02
					c-2.08-0.21-18.94-1.86-28.7-1.49c-10.43,0.4-31.52-4.29-31.52-4.29L265.21,219.47z"/>
				<path class="st6" d="M240.24,218.27c3.03,0.33,3.89-0.04,3.89-0.04s-0.51,0.23-4.85-0.7c-4.34-0.93-9.46-8.3-6.67-7.37
					c2.79,0.93,5.61,3.87,8.34,4.06c0,0-1.79-0.82-2.6-1.52c-5.93-5.09-7.52-9.91-5.89-9.99c1.63-0.08,2.33,1.24,4.5,3.41
					c2.17,2.17,3.65,3.81,6.38,3.8c0.53,0,0-0.39,0-0.39c-5.56-1.55-9.77-9.78-5.75-9.31c1.6,0.19,5.6,6.67,11.31,6.14
					c4.8-0.45,4.36-4.61,4.36-4.61c-1.83-5.32-3.54-9.53-1.8-10.63c2.28-1.44,3.49,4.37,6.91,7.63c1.3,1.24,7.16,6.75,8.42,8.52
					c0.07,4.04-0.4,8.02-1.11,11.98c-0.15,0.08-0.3,0.16-0.47,0.22c-2.65,0.95-10.34,0.23-13.13,1.7s-8.68,0.16-11.86,0
					c-3.18-0.16-6.78-4.24-6.01-4.71C234.98,216.01,236.8,217.89,240.24,218.27z"/>
			</g>
		</g>
	</g>
</g>
</svg>
